<svg width="400" height="400" viewBox="0 0 400 400" fill="none" xmlns="http://www.w3.org/2000/svg">
<g clip-path="url(#clip0_5_218)">
<rect width="400" height="400" fill="white"/>
<line x1="269" y1="400.022" x2="269" y2="299.978" stroke="black"/>
<line x1="178" y1="278.5" x2="268" y2="278.5" stroke="black"/>
<line x1="177.5" y1="400" x2="177.5" y2="279" stroke="black"/>
<line x1="60.5" y1="400" x2="60.5" y2="305" stroke="black"/>
<line x1="140" y1="278.5" x2="178" y2="278.5" stroke="black"/>
<line x1="61" y1="304.5" x2="99" y2="304.5" stroke="black"/>
<line x1="15" y1="273.5" x2="61" y2="273.5" stroke="black"/>
<line x1="262" y1="191.5" x2="280" y2="191.5" stroke="black"/>
<line x1="261.5" y1="192" x2="261.5" y2="120" stroke="black"/>
<line x1="140" y1="225.5" x2="270" y2="225.5" stroke="black"/>
<line x1="268.5" y1="226" x2="268.5" y2="250" stroke="black"/>
<line x1="140.5" y1="226" x2="140.5" y2="250" stroke="black"/>
<line x1="122.611" y1="299.685" x2="139.611" y2="278.685" stroke="black"/>
<line x1="85.6114" y1="273.685" x2="102.611" y2="252.685" stroke="black"/>
<line x1="300.5" y1="192" x2="300.5" y2="313" stroke="black"/>
<line x1="300" y1="312.5" x2="400" y2="312.5" stroke="black"/>
<path d="M208.08 331H207.023C206.96 330.696 206.851 330.429 206.695 330.199C206.541 329.969 206.354 329.776 206.132 329.619C205.913 329.46 205.67 329.341 205.403 329.261C205.136 329.182 204.858 329.142 204.568 329.142C204.04 329.142 203.561 329.276 203.132 329.543C202.706 329.81 202.366 330.203 202.114 330.723C201.864 331.243 201.739 331.881 201.739 332.636C201.739 333.392 201.864 334.03 202.114 334.55C202.366 335.07 202.706 335.463 203.132 335.73C203.561 335.997 204.04 336.131 204.568 336.131C204.858 336.131 205.136 336.091 205.403 336.011C205.67 335.932 205.913 335.814 206.132 335.658C206.354 335.499 206.541 335.304 206.695 335.074C206.851 334.841 206.96 334.574 207.023 334.273H208.08C208 334.719 207.855 335.118 207.645 335.47C207.435 335.822 207.173 336.122 206.861 336.369C206.548 336.614 206.197 336.8 205.808 336.928C205.422 337.055 205.009 337.119 204.568 337.119C203.824 337.119 203.162 336.938 202.582 336.574C202.003 336.21 201.547 335.693 201.214 335.023C200.882 334.352 200.716 333.557 200.716 332.636C200.716 331.716 200.882 330.92 201.214 330.25C201.547 329.58 202.003 329.062 202.582 328.699C203.162 328.335 203.824 328.153 204.568 328.153C205.009 328.153 205.422 328.217 205.808 328.345C206.197 328.473 206.548 328.661 206.861 328.908C207.173 329.152 207.435 329.45 207.645 329.803C207.855 330.152 208 330.551 208.08 331ZM211.577 337.153C211.162 337.153 210.786 337.075 210.448 336.919C210.11 336.76 209.841 336.531 209.642 336.233C209.444 335.932 209.344 335.568 209.344 335.142C209.344 334.767 209.418 334.463 209.566 334.23C209.713 333.994 209.911 333.81 210.158 333.676C210.405 333.543 210.678 333.443 210.976 333.378C211.277 333.31 211.58 333.256 211.884 333.216C212.282 333.165 212.604 333.126 212.851 333.101C213.101 333.072 213.283 333.026 213.397 332.96C213.513 332.895 213.571 332.781 213.571 332.619V332.585C213.571 332.165 213.456 331.838 213.226 331.605C212.999 331.372 212.654 331.256 212.191 331.256C211.711 331.256 211.334 331.361 211.061 331.571C210.789 331.781 210.597 332.006 210.486 332.244L209.532 331.903C209.702 331.506 209.929 331.196 210.213 330.974C210.5 330.75 210.813 330.594 211.151 330.506C211.492 330.415 211.827 330.369 212.157 330.369C212.367 330.369 212.608 330.395 212.881 330.446C213.157 330.494 213.422 330.595 213.678 330.749C213.936 330.902 214.151 331.134 214.321 331.443C214.492 331.753 214.577 332.168 214.577 332.688V337H213.571V336.114H213.52C213.452 336.256 213.338 336.408 213.179 336.57C213.02 336.732 212.809 336.869 212.544 336.983C212.28 337.097 211.958 337.153 211.577 337.153ZM211.73 336.25C212.128 336.25 212.463 336.172 212.736 336.016C213.012 335.859 213.219 335.658 213.358 335.411C213.5 335.163 213.571 334.903 213.571 334.631V333.71C213.529 333.761 213.435 333.808 213.29 333.851C213.148 333.891 212.983 333.926 212.796 333.957C212.611 333.986 212.431 334.011 212.255 334.034C212.081 334.054 211.941 334.071 211.833 334.085C211.571 334.119 211.327 334.175 211.1 334.251C210.875 334.325 210.694 334.437 210.554 334.588C210.418 334.736 210.35 334.937 210.35 335.193C210.35 335.543 210.479 335.807 210.738 335.986C210.999 336.162 211.33 336.25 211.73 336.25ZM217.418 328.273V337H216.413V328.273H217.418ZM222.005 337.136C221.374 337.136 220.83 336.997 220.373 336.719C219.918 336.438 219.567 336.045 219.32 335.543C219.076 335.037 218.953 334.449 218.953 333.778C218.953 333.108 219.076 332.517 219.32 332.006C219.567 331.491 219.911 331.091 220.351 330.804C220.794 330.514 221.311 330.369 221.902 330.369C222.243 330.369 222.58 330.426 222.912 330.54C223.245 330.653 223.547 330.838 223.82 331.094C224.093 331.347 224.31 331.682 224.472 332.099C224.634 332.517 224.715 333.031 224.715 333.642V334.068H219.669V333.199H223.692C223.692 332.83 223.618 332.5 223.471 332.21C223.326 331.92 223.118 331.692 222.848 331.524C222.581 331.357 222.266 331.273 221.902 331.273C221.502 331.273 221.155 331.372 220.863 331.571C220.573 331.767 220.35 332.023 220.194 332.338C220.037 332.653 219.959 332.991 219.959 333.352V333.932C219.959 334.426 220.044 334.845 220.215 335.189C220.388 335.53 220.628 335.79 220.935 335.969C221.242 336.145 221.598 336.233 222.005 336.233C222.269 336.233 222.507 336.196 222.721 336.122C222.936 336.045 223.123 335.932 223.279 335.781C223.435 335.628 223.556 335.437 223.641 335.21L224.613 335.483C224.51 335.812 224.338 336.102 224.097 336.352C223.855 336.599 223.557 336.793 223.202 336.932C222.847 337.068 222.448 337.136 222.005 337.136ZM227.25 328.273V337H226.245V328.273H227.25ZM230.098 328.273V337H229.092V328.273H230.098ZM232.826 328.273V329.04C232.826 329.273 232.784 329.521 232.699 329.786C232.616 330.047 232.494 330.301 232.332 330.548C232.173 330.793 231.98 331.006 231.752 331.188L231.207 330.744C231.386 330.489 231.541 330.223 231.672 329.947C231.805 329.669 231.872 329.372 231.872 329.057V328.273H232.826ZM237.865 331.92L236.962 332.176C236.905 332.026 236.821 331.879 236.711 331.737C236.603 331.592 236.455 331.473 236.267 331.379C236.08 331.286 235.84 331.239 235.547 331.239C235.147 331.239 234.813 331.331 234.546 331.516C234.282 331.697 234.15 331.929 234.15 332.21C234.15 332.46 234.24 332.658 234.422 332.803C234.604 332.947 234.888 333.068 235.275 333.165L236.246 333.403C236.831 333.545 237.267 333.763 237.554 334.055C237.841 334.345 237.985 334.719 237.985 335.176C237.985 335.551 237.877 335.886 237.661 336.182C237.448 336.477 237.15 336.71 236.766 336.881C236.382 337.051 235.936 337.136 235.428 337.136C234.76 337.136 234.208 336.991 233.77 336.702C233.333 336.412 233.056 335.989 232.939 335.432L233.894 335.193C233.985 335.545 234.157 335.81 234.409 335.986C234.665 336.162 234.999 336.25 235.411 336.25C235.88 336.25 236.252 336.151 236.527 335.952C236.806 335.75 236.945 335.509 236.945 335.227C236.945 335 236.865 334.81 236.706 334.656C236.547 334.5 236.303 334.384 235.973 334.307L234.882 334.051C234.283 333.909 233.843 333.689 233.561 333.391C233.283 333.089 233.144 332.713 233.144 332.261C233.144 331.892 233.248 331.565 233.455 331.281C233.665 330.997 233.951 330.774 234.311 330.612C234.675 330.45 235.087 330.369 235.547 330.369C236.195 330.369 236.703 330.511 237.073 330.795C237.445 331.08 237.709 331.455 237.865 331.92ZM201.057 352V343.273H204.108C204.716 343.273 205.217 343.378 205.612 343.588C206.007 343.795 206.301 344.075 206.494 344.428C206.688 344.777 206.784 345.165 206.784 345.591C206.784 345.966 206.717 346.276 206.584 346.52C206.453 346.764 206.28 346.957 206.064 347.099C205.851 347.241 205.619 347.347 205.369 347.415V347.5C205.636 347.517 205.905 347.611 206.175 347.781C206.445 347.952 206.67 348.196 206.852 348.514C207.034 348.832 207.125 349.222 207.125 349.682C207.125 350.119 207.026 350.513 206.827 350.862C206.628 351.212 206.314 351.489 205.885 351.693C205.456 351.898 204.898 352 204.21 352H201.057ZM202.114 351.062H204.21C204.901 351.062 205.391 350.929 205.68 350.662C205.973 350.392 206.119 350.065 206.119 349.682C206.119 349.386 206.044 349.114 205.893 348.864C205.743 348.611 205.528 348.409 205.25 348.259C204.972 348.105 204.642 348.028 204.261 348.028H202.114V351.062ZM202.114 347.108H204.074C204.392 347.108 204.679 347.045 204.935 346.92C205.193 346.795 205.398 346.619 205.548 346.392C205.702 346.165 205.778 345.898 205.778 345.591C205.778 345.207 205.645 344.882 205.378 344.615C205.111 344.345 204.688 344.21 204.108 344.21H202.114V347.108ZM211.469 352.136C210.839 352.136 210.295 351.997 209.837 351.719C209.383 351.438 209.032 351.045 208.785 350.543C208.54 350.037 208.418 349.449 208.418 348.778C208.418 348.108 208.54 347.517 208.785 347.006C209.032 346.491 209.376 346.091 209.816 345.804C210.259 345.514 210.776 345.369 211.367 345.369C211.708 345.369 212.045 345.426 212.377 345.54C212.71 345.653 213.012 345.838 213.285 346.094C213.558 346.347 213.775 346.682 213.937 347.099C214.099 347.517 214.18 348.031 214.18 348.642V349.068H209.134V348.199H213.157C213.157 347.83 213.083 347.5 212.935 347.21C212.79 346.92 212.583 346.692 212.313 346.524C212.046 346.357 211.731 346.273 211.367 346.273C210.967 346.273 210.62 346.372 210.327 346.571C210.038 346.767 209.815 347.023 209.658 347.338C209.502 347.653 209.424 347.991 209.424 348.352V348.932C209.424 349.426 209.509 349.845 209.68 350.189C209.853 350.53 210.093 350.79 210.4 350.969C210.707 351.145 211.063 351.233 211.469 351.233C211.734 351.233 211.972 351.196 212.185 351.122C212.401 351.045 212.587 350.932 212.744 350.781C212.9 350.628 213.021 350.437 213.106 350.21L214.077 350.483C213.975 350.812 213.803 351.102 213.562 351.352C213.32 351.599 213.022 351.793 212.667 351.932C212.312 352.068 211.913 352.136 211.469 352.136ZM218.181 352.136C217.636 352.136 217.154 351.999 216.737 351.723C216.319 351.445 215.992 351.053 215.756 350.547C215.521 350.038 215.403 349.438 215.403 348.744C215.403 348.057 215.521 347.46 215.756 346.955C215.992 346.449 216.32 346.058 216.741 345.783C217.161 345.507 217.647 345.369 218.198 345.369C218.624 345.369 218.961 345.44 219.208 345.582C219.458 345.722 219.648 345.881 219.779 346.06C219.913 346.236 220.016 346.381 220.09 346.494H220.175V343.273H221.181V352H220.21V350.994H220.09C220.016 351.114 219.911 351.264 219.775 351.446C219.638 351.625 219.444 351.786 219.191 351.928C218.938 352.067 218.602 352.136 218.181 352.136ZM218.317 351.233C218.721 351.233 219.062 351.128 219.34 350.918C219.619 350.705 219.83 350.411 219.975 350.036C220.12 349.658 220.192 349.222 220.192 348.727C220.192 348.239 220.121 347.811 219.979 347.445C219.837 347.075 219.627 346.788 219.349 346.584C219.07 346.376 218.727 346.273 218.317 346.273C217.891 346.273 217.536 346.382 217.252 346.601C216.971 346.817 216.759 347.111 216.617 347.483C216.478 347.852 216.408 348.267 216.408 348.727C216.408 349.193 216.479 349.616 216.621 349.997C216.766 350.375 216.979 350.676 217.261 350.901C217.545 351.122 217.897 351.233 218.317 351.233ZM223.163 352V345.455H224.134V346.443H224.202C224.322 346.119 224.538 345.857 224.85 345.655C225.163 345.453 225.515 345.352 225.907 345.352C225.981 345.352 226.073 345.354 226.184 345.357C226.295 345.359 226.379 345.364 226.435 345.369V346.392C226.401 346.384 226.323 346.371 226.201 346.354C226.082 346.334 225.955 346.324 225.822 346.324C225.504 346.324 225.219 346.391 224.969 346.524C224.722 346.655 224.526 346.837 224.381 347.07C224.239 347.3 224.168 347.562 224.168 347.858V352H223.163ZM230.087 352.136C229.496 352.136 228.978 351.996 228.532 351.714C228.089 351.433 227.742 351.04 227.492 350.534C227.245 350.028 227.121 349.437 227.121 348.761C227.121 348.08 227.245 347.484 227.492 346.976C227.742 346.467 228.089 346.072 228.532 345.791C228.978 345.51 229.496 345.369 230.087 345.369C230.678 345.369 231.195 345.51 231.638 345.791C232.085 346.072 232.431 346.467 232.678 346.976C232.928 347.484 233.053 348.08 233.053 348.761C233.053 349.437 232.928 350.028 232.678 350.534C232.431 351.04 232.085 351.433 231.638 351.714C231.195 351.996 230.678 352.136 230.087 352.136ZM230.087 351.233C230.536 351.233 230.906 351.118 231.195 350.888C231.485 350.658 231.7 350.355 231.839 349.98C231.978 349.605 232.048 349.199 232.048 348.761C232.048 348.324 231.978 347.916 231.839 347.538C231.7 347.161 231.485 346.855 231.195 346.622C230.906 346.389 230.536 346.273 230.087 346.273C229.638 346.273 229.269 346.389 228.979 346.622C228.69 346.855 228.475 347.161 228.336 347.538C228.197 347.916 228.127 348.324 228.127 348.761C228.127 349.199 228.197 349.605 228.336 349.98C228.475 350.355 228.69 350.658 228.979 350.888C229.269 351.118 229.638 351.233 230.087 351.233ZM237.248 352.136C236.657 352.136 236.138 351.996 235.692 351.714C235.249 351.433 234.902 351.04 234.652 350.534C234.405 350.028 234.282 349.437 234.282 348.761C234.282 348.08 234.405 347.484 234.652 346.976C234.902 346.467 235.249 346.072 235.692 345.791C236.138 345.51 236.657 345.369 237.248 345.369C237.838 345.369 238.355 345.51 238.799 345.791C239.245 346.072 239.591 346.467 239.838 346.976C240.088 347.484 240.213 348.08 240.213 348.761C240.213 349.437 240.088 350.028 239.838 350.534C239.591 351.04 239.245 351.433 238.799 351.714C238.355 351.996 237.838 352.136 237.248 352.136ZM237.248 351.233C237.696 351.233 238.066 351.118 238.355 350.888C238.645 350.658 238.86 350.355 238.999 349.98C239.138 349.605 239.208 349.199 239.208 348.761C239.208 348.324 239.138 347.916 238.999 347.538C238.86 347.161 238.645 346.855 238.355 346.622C238.066 346.389 237.696 346.273 237.248 346.273C236.799 346.273 236.429 346.389 236.14 346.622C235.85 346.855 235.635 347.161 235.496 347.538C235.357 347.916 235.287 348.324 235.287 348.761C235.287 349.199 235.357 349.605 235.496 349.98C235.635 350.355 235.85 350.658 236.14 350.888C236.429 351.118 236.799 351.233 237.248 351.233ZM241.749 352V345.455H242.72V346.477H242.805C242.942 346.128 243.162 345.857 243.466 345.663C243.77 345.467 244.135 345.369 244.561 345.369C244.993 345.369 245.352 345.467 245.639 345.663C245.929 345.857 246.155 346.128 246.317 346.477H246.385C246.553 346.139 246.804 345.871 247.139 345.672C247.474 345.47 247.876 345.369 248.345 345.369C248.93 345.369 249.409 345.553 249.781 345.919C250.153 346.283 250.339 346.849 250.339 347.619V352H249.334V347.619C249.334 347.136 249.202 346.791 248.938 346.584C248.673 346.376 248.362 346.273 248.004 346.273C247.544 346.273 247.188 346.412 246.935 346.69C246.682 346.966 246.555 347.315 246.555 347.739V352H245.533V347.517C245.533 347.145 245.412 346.845 245.17 346.618C244.929 346.388 244.618 346.273 244.237 346.273C243.976 346.273 243.732 346.342 243.504 346.482C243.28 346.621 243.098 346.814 242.959 347.061C242.822 347.305 242.754 347.588 242.754 347.909V352H241.749Z" fill="black"/>
<path d="M176.057 257V248.273H179.108C179.716 248.273 180.217 248.378 180.612 248.588C181.007 248.795 181.301 249.075 181.494 249.428C181.688 249.777 181.784 250.165 181.784 250.591C181.784 250.966 181.717 251.276 181.584 251.52C181.453 251.764 181.28 251.957 181.064 252.099C180.851 252.241 180.619 252.347 180.369 252.415V252.5C180.636 252.517 180.905 252.611 181.175 252.781C181.445 252.952 181.67 253.196 181.852 253.514C182.034 253.832 182.125 254.222 182.125 254.682C182.125 255.119 182.026 255.513 181.827 255.862C181.628 256.212 181.314 256.489 180.885 256.693C180.456 256.898 179.898 257 179.21 257H176.057ZM177.114 256.062H179.21C179.901 256.062 180.391 255.929 180.68 255.662C180.973 255.392 181.119 255.065 181.119 254.682C181.119 254.386 181.044 254.114 180.893 253.864C180.743 253.611 180.528 253.409 180.25 253.259C179.972 253.105 179.642 253.028 179.261 253.028H177.114V256.062ZM177.114 252.108H179.074C179.392 252.108 179.679 252.045 179.935 251.92C180.193 251.795 180.398 251.619 180.548 251.392C180.702 251.165 180.778 250.898 180.778 250.591C180.778 250.207 180.645 249.882 180.378 249.615C180.111 249.345 179.688 249.21 179.108 249.21H177.114V252.108ZM185.651 257.153C185.237 257.153 184.86 257.075 184.522 256.919C184.184 256.76 183.915 256.531 183.717 256.233C183.518 255.932 183.418 255.568 183.418 255.142C183.418 254.767 183.492 254.463 183.64 254.23C183.788 253.994 183.985 253.81 184.232 253.676C184.479 253.543 184.752 253.443 185.05 253.378C185.352 253.31 185.654 253.256 185.958 253.216C186.356 253.165 186.678 253.126 186.925 253.101C187.175 253.072 187.357 253.026 187.471 252.96C187.587 252.895 187.646 252.781 187.646 252.619V252.585C187.646 252.165 187.531 251.838 187.3 251.605C187.073 251.372 186.728 251.256 186.265 251.256C185.785 251.256 185.408 251.361 185.136 251.571C184.863 251.781 184.671 252.006 184.56 252.244L183.606 251.903C183.776 251.506 184.004 251.196 184.288 250.974C184.575 250.75 184.887 250.594 185.225 250.506C185.566 250.415 185.901 250.369 186.231 250.369C186.441 250.369 186.683 250.395 186.955 250.446C187.231 250.494 187.496 250.595 187.752 250.749C188.011 250.902 188.225 251.134 188.396 251.443C188.566 251.753 188.651 252.168 188.651 252.688V257H187.646V256.114H187.594C187.526 256.256 187.413 256.408 187.254 256.57C187.094 256.732 186.883 256.869 186.619 256.983C186.354 257.097 186.032 257.153 185.651 257.153ZM185.805 256.25C186.202 256.25 186.538 256.172 186.81 256.016C187.086 255.859 187.293 255.658 187.433 255.411C187.575 255.163 187.646 254.903 187.646 254.631V253.71C187.603 253.761 187.509 253.808 187.364 253.851C187.222 253.891 187.058 253.926 186.87 253.957C186.685 253.986 186.505 254.011 186.329 254.034C186.156 254.054 186.015 254.071 185.907 254.085C185.646 254.119 185.401 254.175 185.174 254.251C184.95 254.325 184.768 254.437 184.629 254.588C184.492 254.736 184.424 254.937 184.424 255.193C184.424 255.543 184.553 255.807 184.812 255.986C185.073 256.162 185.404 256.25 185.805 256.25ZM193.333 250.455V251.307H189.941V250.455H193.333ZM190.93 248.886H191.936V255.125C191.936 255.409 191.977 255.622 192.059 255.764C192.145 255.903 192.252 255.997 192.383 256.045C192.517 256.091 192.657 256.114 192.805 256.114C192.916 256.114 193.007 256.108 193.078 256.097C193.149 256.082 193.206 256.071 193.248 256.062L193.453 256.966C193.385 256.991 193.289 257.017 193.167 257.043C193.045 257.071 192.89 257.085 192.703 257.085C192.419 257.085 192.14 257.024 191.868 256.902C191.598 256.78 191.373 256.594 191.194 256.344C191.018 256.094 190.93 255.778 190.93 255.398V248.886ZM195.993 253.062V257H194.987V248.273H195.993V251.477H196.078C196.231 251.139 196.461 250.871 196.768 250.672C197.078 250.47 197.49 250.369 198.004 250.369C198.45 250.369 198.841 250.459 199.176 250.638C199.511 250.814 199.771 251.085 199.956 251.452C200.143 251.815 200.237 252.278 200.237 252.841V257H199.231V252.909C199.231 252.389 199.096 251.987 198.826 251.703C198.559 251.416 198.189 251.273 197.714 251.273C197.385 251.273 197.089 251.342 196.828 251.482C196.569 251.621 196.365 251.824 196.214 252.091C196.066 252.358 195.993 252.682 195.993 253.062ZM202.077 257V250.455H203.048V251.443H203.116C203.236 251.119 203.452 250.857 203.764 250.655C204.077 250.453 204.429 250.352 204.821 250.352C204.895 250.352 204.987 250.354 205.098 250.357C205.209 250.359 205.293 250.364 205.349 250.369V251.392C205.315 251.384 205.237 251.371 205.115 251.354C204.996 251.334 204.869 251.324 204.736 251.324C204.418 251.324 204.134 251.391 203.884 251.524C203.636 251.655 203.44 251.837 203.295 252.07C203.153 252.3 203.082 252.562 203.082 252.858V257H202.077ZM209.001 257.136C208.411 257.136 207.892 256.996 207.446 256.714C207.003 256.433 206.656 256.04 206.406 255.534C206.159 255.028 206.036 254.437 206.036 253.761C206.036 253.08 206.159 252.484 206.406 251.976C206.656 251.467 207.003 251.072 207.446 250.791C207.892 250.51 208.411 250.369 209.001 250.369C209.592 250.369 210.109 250.51 210.553 250.791C210.999 251.072 211.345 251.467 211.592 251.976C211.842 252.484 211.967 253.08 211.967 253.761C211.967 254.437 211.842 255.028 211.592 255.534C211.345 256.04 210.999 256.433 210.553 256.714C210.109 256.996 209.592 257.136 209.001 257.136ZM209.001 256.233C209.45 256.233 209.82 256.118 210.109 255.888C210.399 255.658 210.614 255.355 210.753 254.98C210.892 254.605 210.962 254.199 210.962 253.761C210.962 253.324 210.892 252.916 210.753 252.538C210.614 252.161 210.399 251.855 210.109 251.622C209.82 251.389 209.45 251.273 209.001 251.273C208.553 251.273 208.183 251.389 207.893 251.622C207.604 251.855 207.389 252.161 207.25 252.538C207.111 252.916 207.041 253.324 207.041 253.761C207.041 254.199 207.111 254.605 207.25 254.98C207.389 255.355 207.604 255.658 207.893 255.888C208.183 256.118 208.553 256.233 209.001 256.233ZM216.162 257.136C215.571 257.136 215.052 256.996 214.606 256.714C214.163 256.433 213.816 256.04 213.566 255.534C213.319 255.028 213.196 254.437 213.196 253.761C213.196 253.08 213.319 252.484 213.566 251.976C213.816 251.467 214.163 251.072 214.606 250.791C215.052 250.51 215.571 250.369 216.162 250.369C216.752 250.369 217.27 250.51 217.713 250.791C218.159 251.072 218.505 251.467 218.752 251.976C219.002 252.484 219.127 253.08 219.127 253.761C219.127 254.437 219.002 255.028 218.752 255.534C218.505 256.04 218.159 256.433 217.713 256.714C217.27 256.996 216.752 257.136 216.162 257.136ZM216.162 256.233C216.61 256.233 216.98 256.118 217.27 255.888C217.559 255.658 217.774 255.355 217.913 254.98C218.052 254.605 218.122 254.199 218.122 253.761C218.122 253.324 218.052 252.916 217.913 252.538C217.774 252.161 217.559 251.855 217.27 251.622C216.98 251.389 216.61 251.273 216.162 251.273C215.713 251.273 215.343 251.389 215.054 251.622C214.764 251.855 214.549 252.161 214.41 252.538C214.271 252.916 214.201 253.324 214.201 253.761C214.201 254.199 214.271 254.605 214.41 254.98C214.549 255.355 214.764 255.658 215.054 255.888C215.343 256.118 215.713 256.233 216.162 256.233ZM220.663 257V250.455H221.634V251.477H221.719C221.856 251.128 222.076 250.857 222.38 250.663C222.684 250.467 223.049 250.369 223.475 250.369C223.907 250.369 224.266 250.467 224.553 250.663C224.843 250.857 225.069 251.128 225.231 251.477H225.299C225.467 251.139 225.718 250.871 226.053 250.672C226.388 250.47 226.79 250.369 227.259 250.369C227.844 250.369 228.323 250.553 228.695 250.919C229.067 251.283 229.254 251.849 229.254 252.619V257H228.248V252.619C228.248 252.136 228.116 251.791 227.852 251.584C227.587 251.376 227.276 251.273 226.918 251.273C226.458 251.273 226.102 251.412 225.849 251.69C225.596 251.966 225.469 252.315 225.469 252.739V257H224.447V252.517C224.447 252.145 224.326 251.845 224.085 251.618C223.843 251.388 223.532 251.273 223.151 251.273C222.89 251.273 222.646 251.342 222.418 251.482C222.194 251.621 222.012 251.814 221.873 252.061C221.737 252.305 221.668 252.588 221.668 252.909V257H220.663Z" fill="black"/>
<path d="M73.4148 334H72.3068L75.5114 325.273H76.6023L79.8068 334H78.6989L76.0909 326.653H76.0227L73.4148 334ZM73.8239 330.591H78.2898V331.528H73.8239V330.591ZM82.0355 325.273V334H81.0298V325.273H82.0355ZM86.6218 334.136C85.9911 334.136 85.4471 333.997 84.9897 333.719C84.5352 333.438 84.1843 333.045 83.9371 332.543C83.6928 332.037 83.5707 331.449 83.5707 330.778C83.5707 330.108 83.6928 329.517 83.9371 329.006C84.1843 328.491 84.5281 328.091 84.9684 327.804C85.4116 327.514 85.9286 327.369 86.5195 327.369C86.8604 327.369 87.1971 327.426 87.5295 327.54C87.8619 327.653 88.1644 327.838 88.4371 328.094C88.7099 328.347 88.9272 328.682 89.0891 329.099C89.2511 329.517 89.332 330.031 89.332 330.642V331.068H84.2866V330.199H88.3093C88.3093 329.83 88.2354 329.5 88.0877 329.21C87.9428 328.92 87.7354 328.692 87.4656 328.524C87.1985 328.357 86.8832 328.273 86.5195 328.273C86.119 328.273 85.7724 328.372 85.4798 328.571C85.19 328.767 84.967 329.023 84.8107 329.338C84.6545 329.653 84.5763 329.991 84.5763 330.352V330.932C84.5763 331.426 84.6616 331.845 84.832 332.189C85.0053 332.53 85.2454 332.79 85.5522 332.969C85.859 333.145 86.2156 333.233 86.6218 333.233C86.886 333.233 87.1246 333.196 87.3377 333.122C87.5536 333.045 87.7397 332.932 87.896 332.781C88.0522 332.628 88.1729 332.437 88.2582 332.21L89.2298 332.483C89.1275 332.812 88.9556 333.102 88.7141 333.352C88.4727 333.599 88.1744 333.793 87.8192 333.932C87.4641 334.068 87.065 334.136 86.6218 334.136ZM91.4361 327.455L93.0043 330.131L94.5724 327.455H95.7315L93.6179 330.727L95.7315 334H94.5724L93.0043 331.46L91.4361 334H90.277L92.3565 330.727L90.277 327.455H91.4361ZM98.0529 325.273V326.04C98.0529 326.273 98.0103 326.521 97.9251 326.786C97.8427 327.047 97.7205 327.301 97.5586 327.548C97.3995 327.793 97.2063 328.006 96.979 328.188L96.4336 327.744C96.6126 327.489 96.7674 327.223 96.8981 326.947C97.0316 326.669 97.0984 326.372 97.0984 326.057V325.273H98.0529ZM103.092 328.92L102.189 329.176C102.132 329.026 102.048 328.879 101.937 328.737C101.829 328.592 101.681 328.473 101.494 328.379C101.306 328.286 101.066 328.239 100.774 328.239C100.373 328.239 100.039 328.331 99.7724 328.516C99.5082 328.697 99.3761 328.929 99.3761 329.21C99.3761 329.46 99.467 329.658 99.6488 329.803C99.8306 329.947 100.115 330.068 100.501 330.165L101.473 330.403C102.058 330.545 102.494 330.763 102.781 331.055C103.068 331.345 103.211 331.719 103.211 332.176C103.211 332.551 103.103 332.886 102.887 333.182C102.674 333.477 102.376 333.71 101.993 333.881C101.609 334.051 101.163 334.136 100.654 334.136C99.9869 334.136 99.4343 333.991 98.9968 333.702C98.5593 333.412 98.2823 332.989 98.1658 332.432L99.1204 332.193C99.2113 332.545 99.3832 332.81 99.636 332.986C99.8917 333.162 100.225 333.25 100.637 333.25C101.106 333.25 101.478 333.151 101.754 332.952C102.032 332.75 102.172 332.509 102.172 332.227C102.172 332 102.092 331.81 101.933 331.656C101.774 331.5 101.529 331.384 101.2 331.307L100.109 331.051C99.5096 330.909 99.0692 330.689 98.788 330.391C98.5096 330.089 98.3704 329.713 98.3704 329.261C98.3704 328.892 98.4741 328.565 98.6815 328.281C98.8917 327.997 99.1772 327.774 99.538 327.612C99.9016 327.45 100.314 327.369 100.774 327.369C101.422 327.369 101.93 327.511 102.299 327.795C102.672 328.08 102.936 328.455 103.092 328.92ZM108.237 334V325.273H111.288C111.896 325.273 112.397 325.378 112.792 325.588C113.187 325.795 113.481 326.075 113.674 326.428C113.867 326.777 113.964 327.165 113.964 327.591C113.964 327.966 113.897 328.276 113.763 328.52C113.633 328.764 113.46 328.957 113.244 329.099C113.031 329.241 112.799 329.347 112.549 329.415V329.5C112.816 329.517 113.085 329.611 113.354 329.781C113.624 329.952 113.85 330.196 114.032 330.514C114.214 330.832 114.305 331.222 114.305 331.682C114.305 332.119 114.205 332.513 114.006 332.862C113.808 333.212 113.494 333.489 113.065 333.693C112.636 333.898 112.077 334 111.39 334H108.237ZM109.293 333.062H111.39C112.08 333.062 112.57 332.929 112.86 332.662C113.153 332.392 113.299 332.065 113.299 331.682C113.299 331.386 113.224 331.114 113.073 330.864C112.923 330.611 112.708 330.409 112.43 330.259C112.151 330.105 111.822 330.028 111.441 330.028H109.293V333.062ZM109.293 329.108H111.254C111.572 329.108 111.859 329.045 112.114 328.92C112.373 328.795 112.577 328.619 112.728 328.392C112.881 328.165 112.958 327.898 112.958 327.591C112.958 327.207 112.825 326.882 112.558 326.615C112.29 326.345 111.867 326.21 111.288 326.21H109.293V329.108ZM118.649 334.136C118.018 334.136 117.474 333.997 117.017 333.719C116.562 333.438 116.212 333.045 115.964 332.543C115.72 332.037 115.598 331.449 115.598 330.778C115.598 330.108 115.72 329.517 115.964 329.006C116.212 328.491 116.555 328.091 116.996 327.804C117.439 327.514 117.956 327.369 118.547 327.369C118.888 327.369 119.224 327.426 119.557 327.54C119.889 327.653 120.192 327.838 120.464 328.094C120.737 328.347 120.955 328.682 121.116 329.099C121.278 329.517 121.359 330.031 121.359 330.642V331.068H116.314V330.199H120.337C120.337 329.83 120.263 329.5 120.115 329.21C119.97 328.92 119.763 328.692 119.493 328.524C119.226 328.357 118.911 328.273 118.547 328.273C118.146 328.273 117.8 328.372 117.507 328.571C117.217 328.767 116.994 329.023 116.838 329.338C116.682 329.653 116.604 329.991 116.604 330.352V330.932C116.604 331.426 116.689 331.845 116.859 332.189C117.033 332.53 117.273 332.79 117.58 332.969C117.886 333.145 118.243 333.233 118.649 333.233C118.913 333.233 119.152 333.196 119.365 333.122C119.581 333.045 119.767 332.932 119.923 332.781C120.08 332.628 120.2 332.437 120.286 332.21L121.257 332.483C121.155 332.812 120.983 333.102 120.741 333.352C120.5 333.599 120.202 333.793 119.847 333.932C119.491 334.068 119.092 334.136 118.649 334.136ZM125.361 334.136C124.815 334.136 124.334 333.999 123.916 333.723C123.499 333.445 123.172 333.053 122.936 332.547C122.7 332.038 122.582 331.438 122.582 330.744C122.582 330.057 122.7 329.46 122.936 328.955C123.172 328.449 123.5 328.058 123.92 327.783C124.341 327.507 124.827 327.369 125.378 327.369C125.804 327.369 126.141 327.44 126.388 327.582C126.638 327.722 126.828 327.881 126.959 328.06C127.092 328.236 127.196 328.381 127.27 328.494H127.355V325.273H128.361V334H127.389V332.994H127.27C127.196 333.114 127.091 333.264 126.955 333.446C126.818 333.625 126.624 333.786 126.371 333.928C126.118 334.067 125.781 334.136 125.361 334.136ZM125.497 333.233C125.901 333.233 126.241 333.128 126.52 332.918C126.798 332.705 127.01 332.411 127.155 332.036C127.3 331.658 127.372 331.222 127.372 330.727C127.372 330.239 127.301 329.811 127.159 329.445C127.017 329.075 126.807 328.788 126.528 328.584C126.25 328.376 125.906 328.273 125.497 328.273C125.071 328.273 124.716 328.382 124.432 328.601C124.151 328.817 123.939 329.111 123.797 329.483C123.658 329.852 123.588 330.267 123.588 330.727C123.588 331.193 123.659 331.616 123.801 331.997C123.946 332.375 124.159 332.676 124.44 332.901C124.724 333.122 125.077 333.233 125.497 333.233ZM130.342 334V327.455H131.314V328.443H131.382C131.501 328.119 131.717 327.857 132.03 327.655C132.342 327.453 132.695 327.352 133.087 327.352C133.161 327.352 133.253 327.354 133.364 327.357C133.474 327.359 133.558 327.364 133.615 327.369V328.392C133.581 328.384 133.503 328.371 133.381 328.354C133.261 328.334 133.135 328.324 133.001 328.324C132.683 328.324 132.399 328.391 132.149 328.524C131.902 328.655 131.706 328.837 131.561 329.07C131.419 329.3 131.348 329.562 131.348 329.858V334H130.342ZM137.267 334.136C136.676 334.136 136.158 333.996 135.712 333.714C135.268 333.433 134.922 333.04 134.672 332.534C134.425 332.028 134.301 331.437 134.301 330.761C134.301 330.08 134.425 329.484 134.672 328.976C134.922 328.467 135.268 328.072 135.712 327.791C136.158 327.51 136.676 327.369 137.267 327.369C137.858 327.369 138.375 327.51 138.818 327.791C139.264 328.072 139.611 328.467 139.858 328.976C140.108 329.484 140.233 330.08 140.233 330.761C140.233 331.437 140.108 332.028 139.858 332.534C139.611 333.04 139.264 333.433 138.818 333.714C138.375 333.996 137.858 334.136 137.267 334.136ZM137.267 333.233C137.716 333.233 138.085 333.118 138.375 332.888C138.665 332.658 138.879 332.355 139.018 331.98C139.158 331.605 139.227 331.199 139.227 330.761C139.227 330.324 139.158 329.916 139.018 329.538C138.879 329.161 138.665 328.855 138.375 328.622C138.085 328.389 137.716 328.273 137.267 328.273C136.818 328.273 136.449 328.389 136.159 328.622C135.869 328.855 135.655 329.161 135.516 329.538C135.376 329.916 135.307 330.324 135.307 330.761C135.307 331.199 135.376 331.605 135.516 331.98C135.655 332.355 135.869 332.658 136.159 332.888C136.449 333.118 136.818 333.233 137.267 333.233ZM144.427 334.136C143.836 334.136 143.318 333.996 142.872 333.714C142.429 333.433 142.082 333.04 141.832 332.534C141.585 332.028 141.461 331.437 141.461 330.761C141.461 330.08 141.585 329.484 141.832 328.976C142.082 328.467 142.429 328.072 142.872 327.791C143.318 327.51 143.836 327.369 144.427 327.369C145.018 327.369 145.535 327.51 145.978 327.791C146.424 328.072 146.771 328.467 147.018 328.976C147.268 329.484 147.393 330.08 147.393 330.761C147.393 331.437 147.268 332.028 147.018 332.534C146.771 333.04 146.424 333.433 145.978 333.714C145.535 333.996 145.018 334.136 144.427 334.136ZM144.427 333.233C144.876 333.233 145.245 333.118 145.535 332.888C145.825 332.658 146.039 332.355 146.179 331.98C146.318 331.605 146.387 331.199 146.387 330.761C146.387 330.324 146.318 329.916 146.179 329.538C146.039 329.161 145.825 328.855 145.535 328.622C145.245 328.389 144.876 328.273 144.427 328.273C143.978 328.273 143.609 328.389 143.319 328.622C143.029 328.855 142.815 329.161 142.676 329.538C142.537 329.916 142.467 330.324 142.467 330.761C142.467 331.199 142.537 331.605 142.676 331.98C142.815 332.355 143.029 332.658 143.319 332.888C143.609 333.118 143.978 333.233 144.427 333.233ZM148.928 334V327.455H149.9V328.477H149.985C150.121 328.128 150.342 327.857 150.646 327.663C150.95 327.467 151.315 327.369 151.741 327.369C152.173 327.369 152.532 327.467 152.819 327.663C153.109 327.857 153.335 328.128 153.496 328.477H153.565C153.732 328.139 153.984 327.871 154.319 327.672C154.654 327.47 155.056 327.369 155.525 327.369C156.11 327.369 156.589 327.553 156.961 327.919C157.333 328.283 157.519 328.849 157.519 329.619V334H156.513V329.619C156.513 329.136 156.381 328.791 156.117 328.584C155.853 328.376 155.542 328.273 155.184 328.273C154.724 328.273 154.367 328.412 154.114 328.69C153.862 328.966 153.735 329.315 153.735 329.739V334H152.712V329.517C152.712 329.145 152.592 328.845 152.35 328.618C152.109 328.388 151.798 328.273 151.417 328.273C151.156 328.273 150.911 328.342 150.684 328.482C150.46 328.621 150.278 328.814 150.138 329.061C150.002 329.305 149.934 329.588 149.934 329.909V334H148.928Z" fill="black"/>
<path d="M36.0568 230V221.273H37.1136V225.602H37.2159L41.1364 221.273H42.517L38.8523 225.21L42.517 230H41.2386L38.2045 225.943L37.1136 227.17V230H36.0568ZM44.1587 230V223.455H45.1644V230H44.1587ZM44.6701 222.364C44.4741 222.364 44.305 222.297 44.163 222.163C44.0238 222.03 43.9542 221.869 43.9542 221.682C43.9542 221.494 44.0238 221.334 44.163 221.2C44.305 221.067 44.4741 221 44.6701 221C44.8661 221 45.0337 221.067 45.1729 221.2C45.315 221.334 45.386 221.494 45.386 221.682C45.386 221.869 45.315 222.03 45.1729 222.163C45.0337 222.297 44.8661 222.364 44.6701 222.364ZM49.853 223.455V224.307H46.4609V223.455H49.853ZM47.4496 221.886H48.4553V228.125C48.4553 228.409 48.4964 228.622 48.5788 228.764C48.6641 228.903 48.772 228.997 48.9027 229.045C49.0362 229.091 49.1768 229.114 49.3246 229.114C49.4354 229.114 49.5263 229.108 49.5973 229.097C49.6683 229.082 49.7251 229.071 49.7678 229.062L49.9723 229.966C49.9041 229.991 49.8089 230.017 49.6868 230.043C49.5646 230.071 49.4098 230.085 49.2223 230.085C48.9382 230.085 48.6598 230.024 48.3871 229.902C48.1172 229.78 47.8928 229.594 47.7138 229.344C47.5376 229.094 47.4496 228.778 47.4496 228.398V221.886ZM53.9545 230.136C53.3409 230.136 52.8125 229.991 52.3693 229.702C51.9261 229.412 51.5852 229.013 51.3466 228.504C51.108 227.996 50.9886 227.415 50.9886 226.761C50.9886 226.097 51.1108 225.51 51.3551 225.001C51.6023 224.49 51.946 224.091 52.3864 223.804C52.8295 223.514 53.3466 223.369 53.9375 223.369C54.3977 223.369 54.8125 223.455 55.1818 223.625C55.5511 223.795 55.8537 224.034 56.0895 224.341C56.3253 224.648 56.4716 225.006 56.5284 225.415H55.5227C55.446 225.116 55.2756 224.852 55.0114 224.622C54.75 224.389 54.3977 224.273 53.9545 224.273C53.5625 224.273 53.2188 224.375 52.9233 224.58C52.6307 224.781 52.402 225.067 52.2372 225.436C52.0753 225.803 51.9943 226.233 51.9943 226.727C51.9943 227.233 52.0739 227.673 52.233 228.048C52.3949 228.423 52.6222 228.714 52.9148 228.922C53.2102 229.129 53.5568 229.233 53.9545 229.233C54.2159 229.233 54.4531 229.188 54.6662 229.097C54.8793 229.006 55.0597 228.875 55.2074 228.705C55.3551 228.534 55.4602 228.33 55.5227 228.091H56.5284C56.4716 228.477 56.331 228.825 56.1065 229.135C55.8849 229.442 55.5909 229.686 55.2244 229.868C54.8608 230.047 54.4375 230.136 53.9545 230.136ZM59.0043 226.062V230H57.9986V221.273H59.0043V224.477H59.0895C59.2429 224.139 59.473 223.871 59.7798 223.672C60.0895 223.47 60.5014 223.369 61.0156 223.369C61.4616 223.369 61.8523 223.459 62.1875 223.638C62.5227 223.814 62.7827 224.085 62.9673 224.452C63.1548 224.815 63.2486 225.278 63.2486 225.841V230H62.2429V225.909C62.2429 225.389 62.108 224.987 61.8381 224.703C61.571 224.416 61.2003 224.273 60.7259 224.273C60.3963 224.273 60.1009 224.342 59.8395 224.482C59.581 224.621 59.3764 224.824 59.2259 225.091C59.0781 225.358 59.0043 225.682 59.0043 226.062ZM67.8327 230.136C67.2021 230.136 66.658 229.997 66.2006 229.719C65.7461 229.438 65.3952 229.045 65.1481 228.543C64.9038 228.037 64.7816 227.449 64.7816 226.778C64.7816 226.108 64.9038 225.517 65.1481 225.006C65.3952 224.491 65.739 224.091 66.1793 223.804C66.6225 223.514 67.1396 223.369 67.7305 223.369C68.0714 223.369 68.408 223.426 68.7404 223.54C69.0728 223.653 69.3754 223.838 69.6481 224.094C69.9208 224.347 70.1381 224.682 70.3001 225.099C70.462 225.517 70.543 226.031 70.543 226.642V227.068H65.4975V226.199H69.5202C69.5202 225.83 69.4464 225.5 69.2987 225.21C69.1538 224.92 68.9464 224.692 68.6765 224.524C68.4094 224.357 68.0941 224.273 67.7305 224.273C67.3299 224.273 66.9833 224.372 66.6907 224.571C66.4009 224.767 66.1779 225.023 66.0217 225.338C65.8654 225.653 65.7873 225.991 65.7873 226.352V226.932C65.7873 227.426 65.8725 227.845 66.043 228.189C66.2163 228.53 66.4563 228.79 66.7631 228.969C67.07 229.145 67.4265 229.233 67.8327 229.233C68.0969 229.233 68.3356 229.196 68.5487 229.122C68.7646 229.045 68.9506 228.932 69.1069 228.781C69.2631 228.628 69.3839 228.437 69.4691 228.21L70.4407 228.483C70.3384 228.812 70.1665 229.102 69.9251 229.352C69.6836 229.599 69.3853 229.793 69.0302 229.932C68.6751 230.068 68.2759 230.136 67.8327 230.136ZM73.0785 226.062V230H72.0728V223.455H73.0444V224.477H73.1296C73.283 224.145 73.516 223.878 73.8285 223.676C74.141 223.472 74.5444 223.369 75.0387 223.369C75.4819 223.369 75.8697 223.46 76.2021 223.642C76.5344 223.821 76.793 224.094 76.9776 224.46C77.1623 224.824 77.2546 225.284 77.2546 225.841V230H76.2489V225.909C76.2489 225.395 76.1154 224.994 75.8484 224.707C75.5813 224.418 75.2148 224.273 74.7489 224.273C74.4279 224.273 74.141 224.342 73.8881 224.482C73.6381 224.621 73.4407 224.824 73.2958 225.091C73.1509 225.358 73.0785 225.682 73.0785 226.062Z" fill="black"/>
<path d="M32.75 148H30.0568V139.273H32.8693C33.7159 139.273 34.4403 139.447 35.0426 139.797C35.6449 140.143 36.1065 140.642 36.4276 141.293C36.7486 141.94 36.9091 142.716 36.9091 143.619C36.9091 144.528 36.7472 145.311 36.4233 145.967C36.0994 146.621 35.6278 147.124 35.0085 147.476C34.3892 147.825 33.6364 148 32.75 148ZM31.1136 147.062H32.6818C33.4034 147.062 34.0014 146.923 34.4759 146.645C34.9503 146.366 35.304 145.97 35.5369 145.456C35.7699 144.942 35.8864 144.33 35.8864 143.619C35.8864 142.915 35.7713 142.308 35.5412 141.8C35.3111 141.288 34.9673 140.896 34.5099 140.624C34.0526 140.348 33.483 140.21 32.8011 140.21H31.1136V147.062ZM38.5455 148V141.455H39.5511V148H38.5455ZM39.0568 140.364C38.8608 140.364 38.6918 140.297 38.5497 140.163C38.4105 140.03 38.3409 139.869 38.3409 139.682C38.3409 139.494 38.4105 139.334 38.5497 139.2C38.6918 139.067 38.8608 139 39.0568 139C39.2528 139 39.4205 139.067 39.5597 139.2C39.7017 139.334 39.7727 139.494 39.7727 139.682C39.7727 139.869 39.7017 140.03 39.5597 140.163C39.4205 140.297 39.2528 140.364 39.0568 140.364ZM42.3988 144.062V148H41.3931V141.455H42.3647V142.477H42.4499C42.6033 142.145 42.8363 141.878 43.1488 141.676C43.4613 141.472 43.8647 141.369 44.359 141.369C44.8022 141.369 45.19 141.46 45.5224 141.642C45.8548 141.821 46.1133 142.094 46.2979 142.46C46.4826 142.824 46.5749 143.284 46.5749 143.841V148H45.5692V143.909C45.5692 143.395 45.4357 142.994 45.1687 142.707C44.9016 142.418 44.5352 142.273 44.0692 142.273C43.7482 142.273 43.4613 142.342 43.2085 142.482C42.9585 142.621 42.761 142.824 42.6161 143.091C42.4712 143.358 42.3988 143.682 42.3988 144.062ZM48.4126 148V141.455H49.4183V148H48.4126ZM48.924 140.364C48.728 140.364 48.5589 140.297 48.4169 140.163C48.2777 140.03 48.2081 139.869 48.2081 139.682C48.2081 139.494 48.2777 139.334 48.4169 139.2C48.5589 139.067 48.728 139 48.924 139C49.12 139 49.2876 139.067 49.4268 139.2C49.5689 139.334 49.6399 139.494 49.6399 139.682C49.6399 139.869 49.5689 140.03 49.4268 140.163C49.2876 140.297 49.12 140.364 48.924 140.364ZM52.266 144.062V148H51.2603V141.455H52.2319V142.477H52.3171C52.4705 142.145 52.7035 141.878 53.016 141.676C53.3285 141.472 53.7319 141.369 54.2262 141.369C54.6694 141.369 55.0572 141.46 55.3896 141.642C55.7219 141.821 55.9805 142.094 56.1651 142.46C56.3498 142.824 56.4421 143.284 56.4421 143.841V148H55.4364V143.909C55.4364 143.395 55.3029 142.994 55.0359 142.707C54.7688 142.418 54.4023 142.273 53.9364 142.273C53.6154 142.273 53.3285 142.342 53.0756 142.482C52.8256 142.621 52.6282 142.824 52.4833 143.091C52.3384 143.358 52.266 143.682 52.266 144.062ZM60.9219 150.591C60.4361 150.591 60.0185 150.528 59.669 150.403C59.3196 150.281 59.0284 150.119 58.7955 149.918C58.5653 149.719 58.3821 149.506 58.2457 149.278L59.0469 148.716C59.1378 148.835 59.2528 148.972 59.392 149.125C59.5313 149.281 59.7216 149.416 59.9631 149.53C60.2074 149.646 60.527 149.705 60.9219 149.705C61.4503 149.705 61.8864 149.577 62.2301 149.321C62.5739 149.065 62.7457 148.665 62.7457 148.119V146.79H62.6605C62.5866 146.909 62.4815 147.057 62.3452 147.233C62.2116 147.406 62.0185 147.561 61.7656 147.697C61.5156 147.831 61.1776 147.898 60.7514 147.898C60.223 147.898 59.7486 147.773 59.3281 147.523C58.9105 147.273 58.5795 146.909 58.3352 146.432C58.0938 145.955 57.973 145.375 57.973 144.693C57.973 144.023 58.0909 143.439 58.3267 142.942C58.5625 142.442 58.8906 142.055 59.3111 141.783C59.7315 141.507 60.2173 141.369 60.7685 141.369C61.1946 141.369 61.5327 141.44 61.7827 141.582C62.0355 141.722 62.2287 141.881 62.3622 142.06C62.4986 142.236 62.6037 142.381 62.6776 142.494H62.7798V141.455H63.7514V148.188C63.7514 148.75 63.6236 149.207 63.3679 149.56C63.1151 149.915 62.7741 150.175 62.3452 150.339C61.919 150.507 61.4446 150.591 60.9219 150.591ZM60.8878 146.994C61.2912 146.994 61.6321 146.902 61.9105 146.717C62.1889 146.533 62.4006 146.267 62.5455 145.92C62.6903 145.574 62.7628 145.159 62.7628 144.676C62.7628 144.205 62.6918 143.788 62.5497 143.428C62.4077 143.067 62.1974 142.784 61.919 142.58C61.6406 142.375 61.2969 142.273 60.8878 142.273C60.4616 142.273 60.1065 142.381 59.8224 142.597C59.5412 142.812 59.3295 143.102 59.1875 143.466C59.0483 143.83 58.9787 144.233 58.9787 144.676C58.9787 145.131 59.0497 145.533 59.1918 145.882C59.3366 146.229 59.5497 146.501 59.831 146.7C60.1151 146.896 60.4673 146.994 60.8878 146.994ZM69.1037 148V139.273H72.0526C72.7344 139.273 73.294 139.389 73.7315 139.622C74.169 139.852 74.4929 140.169 74.7031 140.572C74.9134 140.976 75.0185 141.435 75.0185 141.949C75.0185 142.463 74.9134 142.919 74.7031 143.317C74.4929 143.714 74.1705 144.027 73.7358 144.254C73.3011 144.479 72.7457 144.591 72.0696 144.591H69.6832V143.636H72.0355C72.5014 143.636 72.8764 143.568 73.1605 143.432C73.4474 143.295 73.6548 143.102 73.7827 142.852C73.9134 142.599 73.9787 142.298 73.9787 141.949C73.9787 141.599 73.9134 141.294 73.7827 141.033C73.652 140.771 73.4432 140.57 73.1562 140.428C72.8693 140.283 72.4901 140.21 72.0185 140.21H70.1605V148H69.1037ZM73.2116 144.08L75.3594 148H74.1321L72.0185 144.08H73.2116ZM79.2319 148.136C78.641 148.136 78.1225 147.996 77.6765 147.714C77.2333 147.433 76.8867 147.04 76.6367 146.534C76.3896 146.028 76.266 145.437 76.266 144.761C76.266 144.08 76.3896 143.484 76.6367 142.976C76.8867 142.467 77.2333 142.072 77.6765 141.791C78.1225 141.51 78.641 141.369 79.2319 141.369C79.8228 141.369 80.3398 141.51 80.783 141.791C81.229 142.072 81.5756 142.467 81.8228 142.976C82.0728 143.484 82.1978 144.08 82.1978 144.761C82.1978 145.437 82.0728 146.028 81.8228 146.534C81.5756 147.04 81.229 147.433 80.783 147.714C80.3398 147.996 79.8228 148.136 79.2319 148.136ZM79.2319 147.233C79.6808 147.233 80.0501 147.118 80.3398 146.888C80.6296 146.658 80.8441 146.355 80.9833 145.98C81.1225 145.605 81.1921 145.199 81.1921 144.761C81.1921 144.324 81.1225 143.916 80.9833 143.538C80.8441 143.161 80.6296 142.855 80.3398 142.622C80.0501 142.389 79.6808 142.273 79.2319 142.273C78.783 142.273 78.4137 142.389 78.1239 142.622C77.8342 142.855 77.6197 143.161 77.4805 143.538C77.3413 143.916 77.2717 144.324 77.2717 144.761C77.2717 145.199 77.3413 145.605 77.4805 145.98C77.6197 146.355 77.8342 146.658 78.1239 146.888C78.4137 147.118 78.783 147.233 79.2319 147.233ZM86.392 148.136C85.8011 148.136 85.2827 147.996 84.8366 147.714C84.3935 147.433 84.0469 147.04 83.7969 146.534C83.5497 146.028 83.4261 145.437 83.4261 144.761C83.4261 144.08 83.5497 143.484 83.7969 142.976C84.0469 142.467 84.3935 142.072 84.8366 141.791C85.2827 141.51 85.8011 141.369 86.392 141.369C86.983 141.369 87.5 141.51 87.9432 141.791C88.3892 142.072 88.7358 142.467 88.983 142.976C89.233 143.484 89.358 144.08 89.358 144.761C89.358 145.437 89.233 146.028 88.983 146.534C88.7358 147.04 88.3892 147.433 87.9432 147.714C87.5 147.996 86.983 148.136 86.392 148.136ZM86.392 147.233C86.8409 147.233 87.2102 147.118 87.5 146.888C87.7898 146.658 88.0043 146.355 88.1435 145.98C88.2827 145.605 88.3523 145.199 88.3523 144.761C88.3523 144.324 88.2827 143.916 88.1435 143.538C88.0043 143.161 87.7898 142.855 87.5 142.622C87.2102 142.389 86.8409 142.273 86.392 142.273C85.9432 142.273 85.5739 142.389 85.2841 142.622C84.9943 142.855 84.7798 143.161 84.6406 143.538C84.5014 143.916 84.4318 144.324 84.4318 144.761C84.4318 145.199 84.5014 145.605 84.6406 145.98C84.7798 146.355 84.9943 146.658 85.2841 146.888C85.5739 147.118 85.9432 147.233 86.392 147.233ZM90.8931 148V141.455H91.8647V142.477H91.9499C92.0863 142.128 92.3065 141.857 92.6104 141.663C92.9144 141.467 93.2795 141.369 93.7056 141.369C94.1374 141.369 94.4968 141.467 94.7837 141.663C95.0735 141.857 95.2994 142.128 95.4613 142.477H95.5295C95.6971 142.139 95.9485 141.871 96.2837 141.672C96.619 141.47 97.021 141.369 97.4897 141.369C98.0749 141.369 98.5536 141.553 98.9258 141.919C99.2979 142.283 99.484 142.849 99.484 143.619V148H98.4783V143.619C98.4783 143.136 98.3462 142.791 98.082 142.584C97.8178 142.376 97.5067 142.273 97.1488 142.273C96.6886 142.273 96.332 142.412 96.0792 142.69C95.8263 142.966 95.6999 143.315 95.6999 143.739V148H94.6772V143.517C94.6772 143.145 94.5565 142.845 94.315 142.618C94.0735 142.388 93.7624 142.273 93.3817 142.273C93.1204 142.273 92.8761 142.342 92.6488 142.482C92.4244 142.621 92.2425 142.814 92.1033 143.061C91.967 143.305 91.8988 143.588 91.8988 143.909V148H90.8931Z" fill="black"/>
<path d="M148.057 175V166.273H149.114V174.062H153.17V175H148.057ZM154.67 175V168.455H155.676V175H154.67ZM155.182 167.364C154.986 167.364 154.817 167.297 154.675 167.163C154.536 167.03 154.466 166.869 154.466 166.682C154.466 166.494 154.536 166.334 154.675 166.2C154.817 166.067 154.986 166 155.182 166C155.378 166 155.545 166.067 155.685 166.2C155.827 166.334 155.898 166.494 155.898 166.682C155.898 166.869 155.827 167.03 155.685 167.163C155.545 167.297 155.378 167.364 155.182 167.364ZM162.87 168.455L160.45 175H159.427L157.007 168.455H158.098L159.904 173.67H159.973L161.779 168.455H162.87ZM164.198 175V168.455H165.203V175H164.198ZM164.709 167.364C164.513 167.364 164.344 167.297 164.202 167.163C164.063 167.03 163.993 166.869 163.993 166.682C163.993 166.494 164.063 166.334 164.202 166.2C164.344 166.067 164.513 166 164.709 166C164.905 166 165.073 166.067 165.212 166.2C165.354 166.334 165.425 166.494 165.425 166.682C165.425 166.869 165.354 167.03 165.212 167.163C165.073 167.297 164.905 167.364 164.709 167.364ZM168.051 171.062V175H167.045V168.455H168.017V169.477H168.102C168.256 169.145 168.489 168.878 168.801 168.676C169.114 168.472 169.517 168.369 170.011 168.369C170.455 168.369 170.842 168.46 171.175 168.642C171.507 168.821 171.766 169.094 171.95 169.46C172.135 169.824 172.227 170.284 172.227 170.841V175H171.222V170.909C171.222 170.395 171.088 169.994 170.821 169.707C170.554 169.418 170.188 169.273 169.722 169.273C169.401 169.273 169.114 169.342 168.861 169.482C168.611 169.621 168.413 169.824 168.268 170.091C168.124 170.358 168.051 170.682 168.051 171.062ZM176.707 177.591C176.221 177.591 175.804 177.528 175.454 177.403C175.105 177.281 174.814 177.119 174.581 176.918C174.35 176.719 174.167 176.506 174.031 176.278L174.832 175.716C174.923 175.835 175.038 175.972 175.177 176.125C175.316 176.281 175.507 176.416 175.748 176.53C175.993 176.646 176.312 176.705 176.707 176.705C177.235 176.705 177.672 176.577 178.015 176.321C178.359 176.065 178.531 175.665 178.531 175.119V173.79H178.446C178.372 173.909 178.267 174.057 178.13 174.233C177.997 174.406 177.804 174.561 177.551 174.697C177.301 174.831 176.963 174.898 176.537 174.898C176.008 174.898 175.534 174.773 175.113 174.523C174.696 174.273 174.365 173.909 174.12 173.432C173.879 172.955 173.758 172.375 173.758 171.693C173.758 171.023 173.876 170.439 174.112 169.942C174.348 169.442 174.676 169.055 175.096 168.783C175.517 168.507 176.002 168.369 176.554 168.369C176.98 168.369 177.318 168.44 177.568 168.582C177.821 168.722 178.014 168.881 178.147 169.06C178.284 169.236 178.389 169.381 178.463 169.494H178.565V168.455H179.537V175.188C179.537 175.75 179.409 176.207 179.153 176.56C178.9 176.915 178.559 177.175 178.13 177.339C177.704 177.507 177.23 177.591 176.707 177.591ZM176.673 173.994C177.076 173.994 177.417 173.902 177.696 173.717C177.974 173.533 178.186 173.267 178.331 172.92C178.475 172.574 178.548 172.159 178.548 171.676C178.548 171.205 178.477 170.788 178.335 170.428C178.193 170.067 177.983 169.784 177.704 169.58C177.426 169.375 177.082 169.273 176.673 169.273C176.247 169.273 175.892 169.381 175.608 169.597C175.326 169.812 175.115 170.102 174.973 170.466C174.833 170.83 174.764 171.233 174.764 171.676C174.764 172.131 174.835 172.533 174.977 172.882C175.122 173.229 175.335 173.501 175.616 173.7C175.9 173.896 176.252 173.994 176.673 173.994ZM184.889 175V166.273H187.838C188.52 166.273 189.079 166.389 189.517 166.622C189.954 166.852 190.278 167.169 190.488 167.572C190.699 167.976 190.804 168.435 190.804 168.949C190.804 169.463 190.699 169.919 190.488 170.317C190.278 170.714 189.956 171.027 189.521 171.254C189.086 171.479 188.531 171.591 187.855 171.591H185.468V170.636H187.821C188.287 170.636 188.662 170.568 188.946 170.432C189.233 170.295 189.44 170.102 189.568 169.852C189.699 169.599 189.764 169.298 189.764 168.949C189.764 168.599 189.699 168.294 189.568 168.033C189.437 167.771 189.228 167.57 188.941 167.428C188.654 167.283 188.275 167.21 187.804 167.21H185.946V175H184.889ZM188.997 171.08L191.145 175H189.917L187.804 171.08H188.997ZM195.017 175.136C194.426 175.136 193.908 174.996 193.462 174.714C193.018 174.433 192.672 174.04 192.422 173.534C192.175 173.028 192.051 172.437 192.051 171.761C192.051 171.08 192.175 170.484 192.422 169.976C192.672 169.467 193.018 169.072 193.462 168.791C193.908 168.51 194.426 168.369 195.017 168.369C195.608 168.369 196.125 168.51 196.568 168.791C197.014 169.072 197.361 169.467 197.608 169.976C197.858 170.484 197.983 171.08 197.983 171.761C197.983 172.437 197.858 173.028 197.608 173.534C197.361 174.04 197.014 174.433 196.568 174.714C196.125 174.996 195.608 175.136 195.017 175.136ZM195.017 174.233C195.466 174.233 195.835 174.118 196.125 173.888C196.415 173.658 196.629 173.355 196.768 172.98C196.908 172.605 196.977 172.199 196.977 171.761C196.977 171.324 196.908 170.916 196.768 170.538C196.629 170.161 196.415 169.855 196.125 169.622C195.835 169.389 195.466 169.273 195.017 169.273C194.568 169.273 194.199 169.389 193.909 169.622C193.619 169.855 193.405 170.161 193.266 170.538C193.126 170.916 193.057 171.324 193.057 171.761C193.057 172.199 193.126 172.605 193.266 172.98C193.405 173.355 193.619 173.658 193.909 173.888C194.199 174.118 194.568 174.233 195.017 174.233ZM202.177 175.136C201.586 175.136 201.068 174.996 200.622 174.714C200.179 174.433 199.832 174.04 199.582 173.534C199.335 173.028 199.211 172.437 199.211 171.761C199.211 171.08 199.335 170.484 199.582 169.976C199.832 169.467 200.179 169.072 200.622 168.791C201.068 168.51 201.586 168.369 202.177 168.369C202.768 168.369 203.285 168.51 203.728 168.791C204.174 169.072 204.521 169.467 204.768 169.976C205.018 170.484 205.143 171.08 205.143 171.761C205.143 172.437 205.018 173.028 204.768 173.534C204.521 174.04 204.174 174.433 203.728 174.714C203.285 174.996 202.768 175.136 202.177 175.136ZM202.177 174.233C202.626 174.233 202.995 174.118 203.285 173.888C203.575 173.658 203.789 173.355 203.929 172.98C204.068 172.605 204.137 172.199 204.137 171.761C204.137 171.324 204.068 170.916 203.929 170.538C203.789 170.161 203.575 169.855 203.285 169.622C202.995 169.389 202.626 169.273 202.177 169.273C201.728 169.273 201.359 169.389 201.069 169.622C200.779 169.855 200.565 170.161 200.426 170.538C200.287 170.916 200.217 171.324 200.217 171.761C200.217 172.199 200.287 172.605 200.426 172.98C200.565 173.355 200.779 173.658 201.069 173.888C201.359 174.118 201.728 174.233 202.177 174.233ZM206.678 175V168.455H207.65V169.477H207.735C207.871 169.128 208.092 168.857 208.396 168.663C208.7 168.467 209.065 168.369 209.491 168.369C209.923 168.369 210.282 168.467 210.569 168.663C210.859 168.857 211.085 169.128 211.246 169.477H211.315C211.482 169.139 211.734 168.871 212.069 168.672C212.404 168.47 212.806 168.369 213.275 168.369C213.86 168.369 214.339 168.553 214.711 168.919C215.083 169.283 215.269 169.849 215.269 170.619V175H214.263V170.619C214.263 170.136 214.131 169.791 213.867 169.584C213.603 169.376 213.292 169.273 212.934 169.273C212.474 169.273 212.117 169.412 211.864 169.69C211.612 169.966 211.485 170.315 211.485 170.739V175H210.462V170.517C210.462 170.145 210.342 169.845 210.1 169.618C209.859 169.388 209.548 169.273 209.167 169.273C208.906 169.273 208.661 169.342 208.434 169.482C208.21 169.621 208.028 169.814 207.888 170.061C207.752 170.305 207.684 170.588 207.684 170.909V175H206.678Z" fill="black"/>
<path d="M291.057 346.273H292.318L295.284 353.517H295.386L298.352 346.273H299.614V355H298.625V348.369H298.54L295.812 355H294.858L292.131 348.369H292.045V355H291.057V346.273ZM303.522 355.153C303.108 355.153 302.731 355.075 302.393 354.919C302.055 354.76 301.787 354.531 301.588 354.233C301.389 353.932 301.289 353.568 301.289 353.142C301.289 352.767 301.363 352.463 301.511 352.23C301.659 351.994 301.856 351.81 302.103 351.676C302.35 351.543 302.623 351.443 302.922 351.378C303.223 351.31 303.525 351.256 303.829 351.216C304.227 351.165 304.549 351.126 304.797 351.101C305.047 351.072 305.228 351.026 305.342 350.96C305.458 350.895 305.517 350.781 305.517 350.619V350.585C305.517 350.165 305.402 349.838 305.172 349.605C304.944 349.372 304.599 349.256 304.136 349.256C303.656 349.256 303.279 349.361 303.007 349.571C302.734 349.781 302.542 350.006 302.431 350.244L301.477 349.903C301.647 349.506 301.875 349.196 302.159 348.974C302.446 348.75 302.758 348.594 303.096 348.506C303.437 348.415 303.772 348.369 304.102 348.369C304.312 348.369 304.554 348.395 304.826 348.446C305.102 348.494 305.368 348.595 305.623 348.749C305.882 348.902 306.096 349.134 306.267 349.443C306.437 349.753 306.522 350.168 306.522 350.688V355H305.517V354.114H305.466C305.397 354.256 305.284 354.408 305.125 354.57C304.966 354.732 304.754 354.869 304.49 354.983C304.225 355.097 303.903 355.153 303.522 355.153ZM303.676 354.25C304.074 354.25 304.409 354.172 304.681 354.016C304.957 353.859 305.164 353.658 305.304 353.411C305.446 353.163 305.517 352.903 305.517 352.631V351.71C305.474 351.761 305.38 351.808 305.235 351.851C305.093 351.891 304.929 351.926 304.741 351.957C304.556 351.986 304.376 352.011 304.2 352.034C304.027 352.054 303.886 352.071 303.778 352.085C303.517 352.119 303.272 352.175 303.045 352.251C302.821 352.325 302.639 352.437 302.5 352.588C302.363 352.736 302.295 352.937 302.295 353.193C302.295 353.543 302.424 353.807 302.683 353.986C302.944 354.162 303.275 354.25 303.676 354.25ZM308.358 355V348.455H309.33V349.443H309.398C309.517 349.119 309.733 348.857 310.045 348.655C310.358 348.453 310.71 348.352 311.102 348.352C311.176 348.352 311.268 348.354 311.379 348.357C311.49 348.359 311.574 348.364 311.631 348.369V349.392C311.597 349.384 311.518 349.371 311.396 349.354C311.277 349.334 311.151 349.324 311.017 349.324C310.699 349.324 310.415 349.391 310.165 349.524C309.918 349.655 309.722 349.837 309.577 350.07C309.435 350.3 309.364 350.562 309.364 350.858V355H308.358ZM315.283 355.136C314.669 355.136 314.141 354.991 313.697 354.702C313.254 354.412 312.913 354.013 312.675 353.504C312.436 352.996 312.317 352.415 312.317 351.761C312.317 351.097 312.439 350.51 312.683 350.001C312.93 349.49 313.274 349.091 313.714 348.804C314.158 348.514 314.675 348.369 315.266 348.369C315.726 348.369 316.141 348.455 316.51 348.625C316.879 348.795 317.182 349.034 317.418 349.341C317.653 349.648 317.8 350.006 317.857 350.415H316.851C316.774 350.116 316.604 349.852 316.339 349.622C316.078 349.389 315.726 349.273 315.283 349.273C314.891 349.273 314.547 349.375 314.251 349.58C313.959 349.781 313.73 350.067 313.565 350.436C313.403 350.803 313.322 351.233 313.322 351.727C313.322 352.233 313.402 352.673 313.561 353.048C313.723 353.423 313.95 353.714 314.243 353.922C314.538 354.129 314.885 354.233 315.283 354.233C315.544 354.233 315.781 354.188 315.994 354.097C316.207 354.006 316.388 353.875 316.536 353.705C316.683 353.534 316.788 353.33 316.851 353.091H317.857C317.8 353.477 317.659 353.825 317.435 354.135C317.213 354.442 316.919 354.686 316.553 354.868C316.189 355.047 315.766 355.136 315.283 355.136ZM323.452 352.324V348.455H324.457V355H323.452V353.892H323.384C323.23 354.224 322.991 354.507 322.668 354.74C322.344 354.97 321.935 355.085 321.44 355.085C321.031 355.085 320.668 354.996 320.349 354.817C320.031 354.635 319.781 354.362 319.599 353.999C319.418 353.632 319.327 353.17 319.327 352.614V348.455H320.332V352.545C320.332 353.023 320.466 353.403 320.733 353.688C321.003 353.972 321.347 354.114 321.764 354.114C322.014 354.114 322.268 354.05 322.527 353.922C322.788 353.794 323.007 353.598 323.183 353.334C323.362 353.07 323.452 352.733 323.452 352.324ZM330.936 349.92L330.032 350.176C329.975 350.026 329.892 349.879 329.781 349.737C329.673 349.592 329.525 349.473 329.338 349.379C329.15 349.286 328.91 349.239 328.618 349.239C328.217 349.239 327.883 349.331 327.616 349.516C327.352 349.697 327.22 349.929 327.22 350.21C327.22 350.46 327.311 350.658 327.493 350.803C327.674 350.947 327.958 351.068 328.345 351.165L329.316 351.403C329.902 351.545 330.338 351.763 330.625 352.055C330.912 352.345 331.055 352.719 331.055 353.176C331.055 353.551 330.947 353.886 330.731 354.182C330.518 354.477 330.22 354.71 329.836 354.881C329.453 355.051 329.007 355.136 328.498 355.136C327.831 355.136 327.278 354.991 326.841 354.702C326.403 354.412 326.126 353.989 326.01 353.432L326.964 353.193C327.055 353.545 327.227 353.81 327.48 353.986C327.735 354.162 328.069 354.25 328.481 354.25C328.95 354.25 329.322 354.151 329.598 353.952C329.876 353.75 330.015 353.509 330.015 353.227C330.015 353 329.936 352.81 329.777 352.656C329.618 352.5 329.373 352.384 329.044 352.307L327.953 352.051C327.353 351.909 326.913 351.689 326.632 351.391C326.353 351.089 326.214 350.713 326.214 350.261C326.214 349.892 326.318 349.565 326.525 349.281C326.735 348.997 327.021 348.774 327.382 348.612C327.745 348.45 328.157 348.369 328.618 348.369C329.265 348.369 329.774 348.511 330.143 348.795C330.515 349.08 330.779 349.455 330.936 349.92ZM333.455 346.273V347.04C333.455 347.273 333.413 347.521 333.327 347.786C333.245 348.047 333.123 348.301 332.961 348.548C332.802 348.793 332.609 349.006 332.381 349.188L331.836 348.744C332.015 348.489 332.17 348.223 332.3 347.947C332.434 347.669 332.501 347.372 332.501 347.057V346.273H333.455ZM291.057 370V361.273H294.108C294.716 361.273 295.217 361.378 295.612 361.588C296.007 361.795 296.301 362.075 296.494 362.428C296.688 362.777 296.784 363.165 296.784 363.591C296.784 363.966 296.717 364.276 296.584 364.52C296.453 364.764 296.28 364.957 296.064 365.099C295.851 365.241 295.619 365.347 295.369 365.415V365.5C295.636 365.517 295.905 365.611 296.175 365.781C296.445 365.952 296.67 366.196 296.852 366.514C297.034 366.832 297.125 367.222 297.125 367.682C297.125 368.119 297.026 368.513 296.827 368.862C296.628 369.212 296.314 369.489 295.885 369.693C295.456 369.898 294.898 370 294.21 370H291.057ZM292.114 369.062H294.21C294.901 369.062 295.391 368.929 295.68 368.662C295.973 368.392 296.119 368.065 296.119 367.682C296.119 367.386 296.044 367.114 295.893 366.864C295.743 366.611 295.528 366.409 295.25 366.259C294.972 366.105 294.642 366.028 294.261 366.028H292.114V369.062ZM292.114 365.108H294.074C294.392 365.108 294.679 365.045 294.935 364.92C295.193 364.795 295.398 364.619 295.548 364.392C295.702 364.165 295.778 363.898 295.778 363.591C295.778 363.207 295.645 362.882 295.378 362.615C295.111 362.345 294.688 362.21 294.108 362.21H292.114V365.108ZM301.469 370.136C300.839 370.136 300.295 369.997 299.837 369.719C299.383 369.438 299.032 369.045 298.785 368.543C298.54 368.037 298.418 367.449 298.418 366.778C298.418 366.108 298.54 365.517 298.785 365.006C299.032 364.491 299.376 364.091 299.816 363.804C300.259 363.514 300.776 363.369 301.367 363.369C301.708 363.369 302.045 363.426 302.377 363.54C302.71 363.653 303.012 363.838 303.285 364.094C303.558 364.347 303.775 364.682 303.937 365.099C304.099 365.517 304.18 366.031 304.18 366.642V367.068H299.134V366.199H303.157C303.157 365.83 303.083 365.5 302.935 365.21C302.79 364.92 302.583 364.692 302.313 364.524C302.046 364.357 301.731 364.273 301.367 364.273C300.967 364.273 300.62 364.372 300.327 364.571C300.038 364.767 299.815 365.023 299.658 365.338C299.502 365.653 299.424 365.991 299.424 366.352V366.932C299.424 367.426 299.509 367.845 299.68 368.189C299.853 368.53 300.093 368.79 300.4 368.969C300.707 369.145 301.063 369.233 301.469 369.233C301.734 369.233 301.972 369.196 302.185 369.122C302.401 369.045 302.587 368.932 302.744 368.781C302.9 368.628 303.021 368.437 303.106 368.21L304.077 368.483C303.975 368.812 303.803 369.102 303.562 369.352C303.32 369.599 303.022 369.793 302.667 369.932C302.312 370.068 301.913 370.136 301.469 370.136ZM308.181 370.136C307.636 370.136 307.154 369.999 306.737 369.723C306.319 369.445 305.992 369.053 305.756 368.547C305.521 368.038 305.403 367.438 305.403 366.744C305.403 366.057 305.521 365.46 305.756 364.955C305.992 364.449 306.32 364.058 306.741 363.783C307.161 363.507 307.647 363.369 308.198 363.369C308.624 363.369 308.961 363.44 309.208 363.582C309.458 363.722 309.648 363.881 309.779 364.06C309.913 364.236 310.016 364.381 310.09 364.494H310.175V361.273H311.181V370H310.21V368.994H310.09C310.016 369.114 309.911 369.264 309.775 369.446C309.638 369.625 309.444 369.786 309.191 369.928C308.938 370.067 308.602 370.136 308.181 370.136ZM308.317 369.233C308.721 369.233 309.062 369.128 309.34 368.918C309.619 368.705 309.83 368.411 309.975 368.036C310.12 367.658 310.192 367.222 310.192 366.727C310.192 366.239 310.121 365.811 309.979 365.445C309.837 365.075 309.627 364.788 309.349 364.584C309.07 364.376 308.727 364.273 308.317 364.273C307.891 364.273 307.536 364.382 307.252 364.601C306.971 364.817 306.759 365.111 306.617 365.483C306.478 365.852 306.408 366.267 306.408 366.727C306.408 367.193 306.479 367.616 306.621 367.997C306.766 368.375 306.979 368.676 307.261 368.901C307.545 369.122 307.897 369.233 308.317 369.233ZM313.163 370V363.455H314.134V364.443H314.202C314.322 364.119 314.538 363.857 314.85 363.655C315.163 363.453 315.515 363.352 315.907 363.352C315.981 363.352 316.073 363.354 316.184 363.357C316.295 363.359 316.379 363.364 316.435 363.369V364.392C316.401 364.384 316.323 364.371 316.201 364.354C316.082 364.334 315.955 364.324 315.822 364.324C315.504 364.324 315.219 364.391 314.969 364.524C314.722 364.655 314.526 364.837 314.381 365.07C314.239 365.3 314.168 365.562 314.168 365.858V370H313.163ZM320.087 370.136C319.496 370.136 318.978 369.996 318.532 369.714C318.089 369.433 317.742 369.04 317.492 368.534C317.245 368.028 317.121 367.437 317.121 366.761C317.121 366.08 317.245 365.484 317.492 364.976C317.742 364.467 318.089 364.072 318.532 363.791C318.978 363.51 319.496 363.369 320.087 363.369C320.678 363.369 321.195 363.51 321.638 363.791C322.085 364.072 322.431 364.467 322.678 364.976C322.928 365.484 323.053 366.08 323.053 366.761C323.053 367.437 322.928 368.028 322.678 368.534C322.431 369.04 322.085 369.433 321.638 369.714C321.195 369.996 320.678 370.136 320.087 370.136ZM320.087 369.233C320.536 369.233 320.906 369.118 321.195 368.888C321.485 368.658 321.7 368.355 321.839 367.98C321.978 367.605 322.048 367.199 322.048 366.761C322.048 366.324 321.978 365.916 321.839 365.538C321.7 365.161 321.485 364.855 321.195 364.622C320.906 364.389 320.536 364.273 320.087 364.273C319.638 364.273 319.269 364.389 318.979 364.622C318.69 364.855 318.475 365.161 318.336 365.538C318.197 365.916 318.127 366.324 318.127 366.761C318.127 367.199 318.197 367.605 318.336 367.98C318.475 368.355 318.69 368.658 318.979 368.888C319.269 369.118 319.638 369.233 320.087 369.233ZM327.248 370.136C326.657 370.136 326.138 369.996 325.692 369.714C325.249 369.433 324.902 369.04 324.652 368.534C324.405 368.028 324.282 367.437 324.282 366.761C324.282 366.08 324.405 365.484 324.652 364.976C324.902 364.467 325.249 364.072 325.692 363.791C326.138 363.51 326.657 363.369 327.248 363.369C327.838 363.369 328.355 363.51 328.799 363.791C329.245 364.072 329.591 364.467 329.838 364.976C330.088 365.484 330.213 366.08 330.213 366.761C330.213 367.437 330.088 368.028 329.838 368.534C329.591 369.04 329.245 369.433 328.799 369.714C328.355 369.996 327.838 370.136 327.248 370.136ZM327.248 369.233C327.696 369.233 328.066 369.118 328.355 368.888C328.645 368.658 328.86 368.355 328.999 367.98C329.138 367.605 329.208 367.199 329.208 366.761C329.208 366.324 329.138 365.916 328.999 365.538C328.86 365.161 328.645 364.855 328.355 364.622C328.066 364.389 327.696 364.273 327.248 364.273C326.799 364.273 326.429 364.389 326.14 364.622C325.85 364.855 325.635 365.161 325.496 365.538C325.357 365.916 325.287 366.324 325.287 366.761C325.287 367.199 325.357 367.605 325.496 367.98C325.635 368.355 325.85 368.658 326.14 368.888C326.429 369.118 326.799 369.233 327.248 369.233ZM331.749 370V363.455H332.72V364.477H332.805C332.942 364.128 333.162 363.857 333.466 363.663C333.77 363.467 334.135 363.369 334.561 363.369C334.993 363.369 335.352 363.467 335.639 363.663C335.929 363.857 336.155 364.128 336.317 364.477H336.385C336.553 364.139 336.804 363.871 337.139 363.672C337.474 363.47 337.876 363.369 338.345 363.369C338.93 363.369 339.409 363.553 339.781 363.919C340.153 364.283 340.339 364.849 340.339 365.619V370H339.334V365.619C339.334 365.136 339.202 364.791 338.938 364.584C338.673 364.376 338.362 364.273 338.004 364.273C337.544 364.273 337.188 364.412 336.935 364.69C336.682 364.966 336.555 365.315 336.555 365.739V370H335.533V365.517C335.533 365.145 335.412 364.845 335.17 364.618C334.929 364.388 334.618 364.273 334.237 364.273C333.976 364.273 333.732 364.342 333.504 364.482C333.28 364.621 333.098 364.814 332.959 365.061C332.822 365.305 332.754 365.588 332.754 365.909V370H331.749Z" fill="black"/>
<line x1="162" y1="119.5" x2="262" y2="119.5" stroke="black"/>
<line x1="15" y1="119.5" x2="162" y2="119.5" stroke="black"/>
<line x1="15.5" y1="120" x2="15.5" y2="274" stroke="black"/>
<line x1="103.5" y1="173" x2="103.5" y2="253" stroke="black"/>
<line x1="262" y1="119.5" x2="400" y2="119.5" stroke="black"/>
<line x1="300" y1="191.5" x2="400" y2="191.5" stroke="black"/>
<path d="M291.057 160V151.273H292.114V159.062H296.17V160H291.057ZM301.795 157.324V153.455H302.801V160H301.795V158.892H301.727C301.574 159.224 301.335 159.507 301.011 159.74C300.688 159.97 300.278 160.085 299.784 160.085C299.375 160.085 299.011 159.996 298.693 159.817C298.375 159.635 298.125 159.362 297.943 158.999C297.761 158.632 297.67 158.17 297.67 157.614V153.455H298.676V157.545C298.676 158.023 298.81 158.403 299.077 158.688C299.347 158.972 299.69 159.114 300.108 159.114C300.358 159.114 300.612 159.05 300.871 158.922C301.132 158.794 301.351 158.598 301.527 158.334C301.706 158.07 301.795 157.733 301.795 157.324ZM305.581 157.614L305.564 156.369H305.768L308.632 153.455H309.876L306.825 156.54H306.74L305.581 157.614ZM304.643 160V151.273H305.649V160H304.643ZM308.802 160L306.245 156.761L306.961 156.062L310.081 160H308.802ZM313.645 160.136C313.015 160.136 312.471 159.997 312.013 159.719C311.559 159.438 311.208 159.045 310.961 158.543C310.716 158.037 310.594 157.449 310.594 156.778C310.594 156.108 310.716 155.517 310.961 155.006C311.208 154.491 311.551 154.091 311.992 153.804C312.435 153.514 312.952 153.369 313.543 153.369C313.884 153.369 314.221 153.426 314.553 153.54C314.885 153.653 315.188 153.838 315.461 154.094C315.733 154.347 315.951 154.682 316.113 155.099C316.275 155.517 316.355 156.031 316.355 156.642V157.068H311.31V156.199H315.333C315.333 155.83 315.259 155.5 315.111 155.21C314.966 154.92 314.759 154.692 314.489 154.524C314.222 154.357 313.907 154.273 313.543 154.273C313.142 154.273 312.796 154.372 312.503 154.571C312.213 154.767 311.99 155.023 311.834 155.338C311.678 155.653 311.6 155.991 311.6 156.352V156.932C311.6 157.426 311.685 157.845 311.855 158.189C312.029 158.53 312.269 158.79 312.576 158.969C312.882 159.145 313.239 159.233 313.645 159.233C313.909 159.233 314.148 159.196 314.361 159.122C314.577 159.045 314.763 158.932 314.919 158.781C315.076 158.628 315.196 158.437 315.282 158.21L316.253 158.483C316.151 158.812 315.979 159.102 315.738 159.352C315.496 159.599 315.198 159.793 314.843 159.932C314.488 160.068 314.088 160.136 313.645 160.136ZM318.772 151.273V152.04C318.772 152.273 318.729 152.521 318.644 152.786C318.561 153.047 318.439 153.301 318.277 153.548C318.118 153.793 317.925 154.006 317.698 154.188L317.152 153.744C317.331 153.489 317.486 153.223 317.617 152.947C317.75 152.669 317.817 152.372 317.817 152.057V151.273H318.772ZM323.811 154.92L322.907 155.176C322.85 155.026 322.767 154.879 322.656 154.737C322.548 154.592 322.4 154.473 322.213 154.379C322.025 154.286 321.785 154.239 321.493 154.239C321.092 154.239 320.758 154.331 320.491 154.516C320.227 154.697 320.095 154.929 320.095 155.21C320.095 155.46 320.186 155.658 320.368 155.803C320.549 155.947 320.833 156.068 321.22 156.165L322.191 156.403C322.777 156.545 323.213 156.763 323.5 157.055C323.787 157.345 323.93 157.719 323.93 158.176C323.93 158.551 323.822 158.886 323.606 159.182C323.393 159.477 323.095 159.71 322.711 159.881C322.328 160.051 321.882 160.136 321.373 160.136C320.706 160.136 320.153 159.991 319.716 159.702C319.278 159.412 319.001 158.989 318.885 158.432L319.839 158.193C319.93 158.545 320.102 158.81 320.355 158.986C320.61 159.162 320.944 159.25 321.356 159.25C321.825 159.25 322.197 159.151 322.473 158.952C322.751 158.75 322.89 158.509 322.89 158.227C322.89 158 322.811 157.81 322.652 157.656C322.493 157.5 322.248 157.384 321.919 157.307L320.828 157.051C320.228 156.909 319.788 156.689 319.507 156.391C319.228 156.089 319.089 155.713 319.089 155.261C319.089 154.892 319.193 154.565 319.4 154.281C319.61 153.997 319.896 153.774 320.257 153.612C320.62 153.45 321.032 153.369 321.493 153.369C322.14 153.369 322.649 153.511 323.018 153.795C323.39 154.08 323.654 154.455 323.811 154.92ZM328.955 160V151.273H332.006C332.614 151.273 333.116 151.378 333.511 151.588C333.906 151.795 334.2 152.075 334.393 152.428C334.586 152.777 334.683 153.165 334.683 153.591C334.683 153.966 334.616 154.276 334.482 154.52C334.352 154.764 334.178 154.957 333.962 155.099C333.749 155.241 333.518 155.347 333.268 155.415V155.5C333.535 155.517 333.803 155.611 334.073 155.781C334.343 155.952 334.569 156.196 334.751 156.514C334.933 156.832 335.023 157.222 335.023 157.682C335.023 158.119 334.924 158.513 334.725 158.862C334.526 159.212 334.212 159.489 333.783 159.693C333.354 159.898 332.796 160 332.109 160H328.955ZM330.012 159.062H332.109C332.799 159.062 333.289 158.929 333.579 158.662C333.871 158.392 334.018 158.065 334.018 157.682C334.018 157.386 333.942 157.114 333.792 156.864C333.641 156.611 333.427 156.409 333.148 156.259C332.87 156.105 332.54 156.028 332.16 156.028H330.012V159.062ZM330.012 155.108H331.972C332.29 155.108 332.577 155.045 332.833 154.92C333.092 154.795 333.296 154.619 333.447 154.392C333.6 154.165 333.677 153.898 333.677 153.591C333.677 153.207 333.543 152.882 333.276 152.615C333.009 152.345 332.586 152.21 332.006 152.21H330.012V155.108ZM339.368 160.136C338.737 160.136 338.193 159.997 337.736 159.719C337.281 159.438 336.93 159.045 336.683 158.543C336.439 158.037 336.317 157.449 336.317 156.778C336.317 156.108 336.439 155.517 336.683 155.006C336.93 154.491 337.274 154.091 337.714 153.804C338.158 153.514 338.675 153.369 339.266 153.369C339.607 153.369 339.943 153.426 340.276 153.54C340.608 153.653 340.911 153.838 341.183 154.094C341.456 154.347 341.673 154.682 341.835 155.099C341.997 155.517 342.078 156.031 342.078 156.642V157.068H337.033V156.199H341.055C341.055 155.83 340.982 155.5 340.834 155.21C340.689 154.92 340.482 154.692 340.212 154.524C339.945 154.357 339.629 154.273 339.266 154.273C338.865 154.273 338.518 154.372 338.226 154.571C337.936 154.767 337.713 155.023 337.557 155.338C337.401 155.653 337.322 155.991 337.322 156.352V156.932C337.322 157.426 337.408 157.845 337.578 158.189C337.751 158.53 337.991 158.79 338.298 158.969C338.605 159.145 338.962 159.233 339.368 159.233C339.632 159.233 339.871 159.196 340.084 159.122C340.3 159.045 340.486 158.932 340.642 158.781C340.798 158.628 340.919 158.437 341.004 158.21L341.976 158.483C341.874 158.812 341.702 159.102 341.46 159.352C341.219 159.599 340.92 159.793 340.565 159.932C340.21 160.068 339.811 160.136 339.368 160.136ZM346.08 160.136C345.534 160.136 345.053 159.999 344.635 159.723C344.217 159.445 343.891 159.053 343.655 158.547C343.419 158.038 343.301 157.438 343.301 156.744C343.301 156.057 343.419 155.46 343.655 154.955C343.891 154.449 344.219 154.058 344.639 153.783C345.06 153.507 345.545 153.369 346.097 153.369C346.523 153.369 346.859 153.44 347.107 153.582C347.357 153.722 347.547 153.881 347.678 154.06C347.811 154.236 347.915 154.381 347.989 154.494H348.074V151.273H349.08V160H348.108V158.994H347.989C347.915 159.114 347.81 159.264 347.673 159.446C347.537 159.625 347.342 159.786 347.089 159.928C346.837 160.067 346.5 160.136 346.08 160.136ZM346.216 159.233C346.619 159.233 346.96 159.128 347.239 158.918C347.517 158.705 347.729 158.411 347.874 158.036C348.018 157.658 348.091 157.222 348.091 156.727C348.091 156.239 348.02 155.811 347.878 155.445C347.736 155.075 347.526 154.788 347.247 154.584C346.969 154.376 346.625 154.273 346.216 154.273C345.79 154.273 345.435 154.382 345.151 154.601C344.869 154.817 344.658 155.111 344.516 155.483C344.376 155.852 344.307 156.267 344.307 156.727C344.307 157.193 344.378 157.616 344.52 157.997C344.665 158.375 344.878 158.676 345.159 158.901C345.443 159.122 345.795 159.233 346.216 159.233ZM351.061 160V153.455H352.033V154.443H352.101C352.22 154.119 352.436 153.857 352.749 153.655C353.061 153.453 353.413 153.352 353.805 153.352C353.879 153.352 353.972 153.354 354.082 153.357C354.193 153.359 354.277 153.364 354.334 153.369V154.392C354.3 154.384 354.222 154.371 354.099 154.354C353.98 154.334 353.854 154.324 353.72 154.324C353.402 154.324 353.118 154.391 352.868 154.524C352.621 154.655 352.425 154.837 352.28 155.07C352.138 155.3 352.067 155.562 352.067 155.858V160H351.061ZM357.986 160.136C357.395 160.136 356.876 159.996 356.43 159.714C355.987 159.433 355.641 159.04 355.391 158.534C355.143 158.028 355.02 157.437 355.02 156.761C355.02 156.08 355.143 155.484 355.391 154.976C355.641 154.467 355.987 154.072 356.43 153.791C356.876 153.51 357.395 153.369 357.986 153.369C358.577 153.369 359.094 153.51 359.537 153.791C359.983 154.072 360.33 154.467 360.577 154.976C360.827 155.484 360.952 156.08 360.952 156.761C360.952 157.437 360.827 158.028 360.577 158.534C360.33 159.04 359.983 159.433 359.537 159.714C359.094 159.996 358.577 160.136 357.986 160.136ZM357.986 159.233C358.435 159.233 358.804 159.118 359.094 158.888C359.384 158.658 359.598 158.355 359.737 157.98C359.876 157.605 359.946 157.199 359.946 156.761C359.946 156.324 359.876 155.916 359.737 155.538C359.598 155.161 359.384 154.855 359.094 154.622C358.804 154.389 358.435 154.273 357.986 154.273C357.537 154.273 357.168 154.389 356.878 154.622C356.588 154.855 356.374 155.161 356.234 155.538C356.095 155.916 356.026 156.324 356.026 156.761C356.026 157.199 356.095 157.605 356.234 157.98C356.374 158.355 356.588 158.658 356.878 158.888C357.168 159.118 357.537 159.233 357.986 159.233ZM365.146 160.136C364.555 160.136 364.037 159.996 363.591 159.714C363.147 159.433 362.801 159.04 362.551 158.534C362.304 158.028 362.18 157.437 362.18 156.761C362.18 156.08 362.304 155.484 362.551 154.976C362.801 154.467 363.147 154.072 363.591 153.791C364.037 153.51 364.555 153.369 365.146 153.369C365.737 153.369 366.254 153.51 366.697 153.791C367.143 154.072 367.49 154.467 367.737 154.976C367.987 155.484 368.112 156.08 368.112 156.761C368.112 157.437 367.987 158.028 367.737 158.534C367.49 159.04 367.143 159.433 366.697 159.714C366.254 159.996 365.737 160.136 365.146 160.136ZM365.146 159.233C365.595 159.233 365.964 159.118 366.254 158.888C366.544 158.658 366.758 158.355 366.897 157.98C367.037 157.605 367.106 157.199 367.106 156.761C367.106 156.324 367.037 155.916 366.897 155.538C366.758 155.161 366.544 154.855 366.254 154.622C365.964 154.389 365.595 154.273 365.146 154.273C364.697 154.273 364.328 154.389 364.038 154.622C363.748 154.855 363.534 155.161 363.395 155.538C363.255 155.916 363.186 156.324 363.186 156.761C363.186 157.199 363.255 157.605 363.395 157.98C363.534 158.355 363.748 158.658 364.038 158.888C364.328 159.118 364.697 159.233 365.146 159.233ZM369.647 160V153.455H370.619V154.477H370.704C370.84 154.128 371.06 153.857 371.364 153.663C371.668 153.467 372.033 153.369 372.46 153.369C372.891 153.369 373.251 153.467 373.538 153.663C373.827 153.857 374.053 154.128 374.215 154.477H374.283C374.451 154.139 374.702 153.871 375.038 153.672C375.373 153.47 375.775 153.369 376.244 153.369C376.829 153.369 377.308 153.553 377.68 153.919C378.052 154.283 378.238 154.849 378.238 155.619V160H377.232V155.619C377.232 155.136 377.1 154.791 376.836 154.584C376.572 154.376 376.261 154.273 375.903 154.273C375.442 154.273 375.086 154.412 374.833 154.69C374.58 154.966 374.454 155.315 374.454 155.739V160H373.431V155.517C373.431 155.145 373.31 154.845 373.069 154.618C372.827 154.388 372.516 154.273 372.136 154.273C371.874 154.273 371.63 154.342 371.403 154.482C371.178 154.621 370.996 154.814 370.857 155.061C370.721 155.305 370.653 155.588 370.653 155.909V160H369.647Z" fill="black"/>
<ellipse cx="252" cy="292.5" rx="10" ry="10.5" fill="#5510F4"/>
<ellipse cx="109" cy="314.5" rx="10" ry="10.5" fill="#5510F4"/>
<rect x="261" y="288" width="34" height="10" fill="#5510F4"/>
<rect x="113" y="204" width="182" height="10" fill="#5510F4"/>
<rect x="285" y="294" width="86" height="10" transform="rotate(-90 285 294)" fill="#5510F4"/>
<rect x="104" y="313" width="31" height="10" transform="rotate(-90 104 313)" fill="#5510F4"/>
<rect x="113" y="269" width="65" height="10" transform="rotate(-90 113 269)" fill="#5510F4"/>
<rect x="103.477" y="283.811" width="22.8758" height="10" transform="rotate(-60 103.477 283.811)" fill="#5510F4"/>
</g>
<defs>
<clipPath id="clip0_5_218">
<rect width="400" height="400" fill="white"/>
</clipPath>
</defs>
</svg>
